# xmcd CD database file
#
# Track frame offsets:
#	182
#	13612
#	28680
#	40710
#	55482
#	68630
#	82202
#	96102
#	109312
#	121477
#	132922
#	144737
#	158172
#	172860
#	179895
#	188717
#	201297
#
# Disc length: 2814 seconds
#
# Revision: 0
# Processed by: cddbd v1.5.1PL0 Copyright (c) Steve Scherf et al.
# Submitted via: CDex 1.51
#
DISCID=f50afc11
DTITLE=Amos Milburn and His Aladdin Chickenshackers - Rock, Rock, Rock
DYEAR=1900
DGENRE=Blues
TTITLE0=Drifting Blues
TTITLE1=Bow-Wow!
TTITLE2=I Still Love You
TTITLE3=Hard Luck Blues
TTITLE4=Square Dance Boogie
TTITLE5=Remember
TTITLE6=Two Years Of Torture
TTITLE7=Flying Home
TTITLE8=Rock, Rock, Rock
TTITLE9=Glory Of Love
TTITLE10=I Done Done It
TTITLE11=That Was Your Last Mistake -Goodbye
TTITLE12=I Guess I'll Go
TTITLE13=Girl Of My Dreams
TTITLE14=French Fried Potatoes And Ketchup
TTITLE15=Dear Angel
TTITLE16=If I Could Be With You (One Hour Tonight)
EXTD=
EXTT0=
EXTT1=
EXTT2=
EXTT3=
EXTT4=
EXTT5=
EXTT6=
EXTT7=
EXTT8=
EXTT9=
EXTT10=
EXTT11=
EXTT12=
EXTT13=
EXTT14=
EXTT15=
EXTT16=
PLAYORDER=
